<svg version="1.1" xmlns="http://www.w3.org/2000/svg" xmlns:xlink="http://www.w3.org/1999/xlink" width="1036" height="828"><defs></defs><g><g transform="translate(-510,-238) scale(1,1)"><rect fill="#C0C0C0" stroke="none" x="527" y="831" width="200" height="152" opacity="0.2"></rect></g><g transform="translate(-510,-238) scale(1,1)"><rect fill="#ffffff" stroke="none" x="520" y="824" width="200" height="152"></rect></g><g transform="translate(-510,-238) scale(1,1)"><path fill="none" stroke="#000000" d="M 520 824 L 720 824 L 720 976 L 520 976 L 520 824 Z Z" stroke-miterlimit="10"></path></g><g transform="translate(-510,-238) scale(1,1)"><path fill="none" stroke="#000000" d="M 520 849 L 720 849" stroke-miterlimit="10"></path></g><g transform="translate(-510,-238) scale(1,1)"><path fill="none" stroke="#000000" d="M 520 902 L 720 902" stroke-miterlimit="10"></path></g><g transform="translate(-510,-238) scale(1,1)"><g><path fill="none" stroke="none"></path><text fill="#000000" stroke="none" font-family="Arial" font-size="13px" font-style="normal" font-weight="bold" text-decoration="none" x="576.5" y="843.5">JCoincheClient</text></g></g><g transform="translate(-510,-238) scale(1,1)"><g><path fill="none" stroke="none"></path><text fill="#000000" stroke="none" font-family="Arial" font-size="13px" font-style="normal" font-weight="normal" text-decoration="none" x="525" y="866.5">+port: int</text></g></g><g transform="translate(-510,-238) scale(1,1)"><g><path fill="none" stroke="none"></path><text fill="#000000" stroke="none" font-family="Arial" font-size="13px" font-style="normal" font-weight="normal" text-decoration="none" x="525" y="881.5">+host: String</text></g></g><g transform="translate(-510,-238) scale(1,1)"><g><path fill="none" stroke="none"></path><text fill="#000000" stroke="none" font-family="Arial" font-size="13px" font-style="normal" font-weight="normal" text-decoration="none" x="525" y="896.5">+clientProcess: ClientProcess</text></g></g><g transform="translate(-510,-238) scale(1,1)"><rect fill="#C0C0C0" stroke="none" x="743" y="831" width="208" height="152" opacity="0.2"></rect></g><g transform="translate(-510,-238) scale(1,1)"><rect fill="#ffffff" stroke="none" x="736" y="824" width="208" height="152"></rect></g><g transform="translate(-510,-238) scale(1,1)"><path fill="none" stroke="#000000" d="M 736 824 L 944 824 L 944 976 L 736 976 L 736 824 Z Z" stroke-miterlimit="10"></path></g><g transform="translate(-510,-238) scale(1,1)"><path fill="none" stroke="#000000" d="M 736 849 L 944 849" stroke-miterlimit="10"></path></g><g transform="translate(-510,-238) scale(1,1)"><path fill="none" stroke="#000000" d="M 736 887 L 944 887" stroke-miterlimit="10"></path></g><g transform="translate(-510,-238) scale(1,1)"><g><path fill="none" stroke="none"></path><text fill="#000000" stroke="none" font-family="Arial" font-size="13px" font-style="normal" font-weight="bold" text-decoration="none" x="774.5" y="843.5">JCoincheClientHandler</text></g></g><g transform="translate(-510,-238) scale(1,1)"><g><path fill="none" stroke="none"></path><text fill="#000000" stroke="none" font-family="Arial" font-size="13px" font-style="normal" font-weight="normal" text-decoration="none" x="741" y="866.5">+clientProcess: ClientProcess</text></g></g><g transform="translate(-510,-238) scale(1,1)"><g><path fill="none" stroke="none"></path><text fill="#000000" stroke="none" font-family="Arial" font-size="13px" font-style="normal" font-weight="normal" text-decoration="none" x="741" y="881.5">+activityChecker: ActivityChecker</text></g></g><g transform="translate(-510,-238) scale(1,1)"><g><path fill="none" stroke="none"></path><text fill="#000000" stroke="none" font-family="Arial" font-size="13px" font-style="normal" font-weight="normal" text-decoration="none" x="741" y="904.5">+channelActive()</text></g></g><g transform="translate(-510,-238) scale(1,1)"><g><path fill="none" stroke="none"></path><text fill="#000000" stroke="none" font-family="Arial" font-size="13px" font-style="normal" font-weight="normal" text-decoration="none" x="741" y="919.5">+channelInnactive()</text></g></g><g transform="translate(-510,-238) scale(1,1)"><g><path fill="none" stroke="none"></path><text fill="#000000" stroke="none" font-family="Arial" font-size="13px" font-style="normal" font-weight="normal" text-decoration="none" x="741" y="934.5">+channelRead()</text></g></g><g transform="translate(-510,-238) scale(1,1)"><rect fill="#C0C0C0" stroke="none" x="999" y="983" width="256" height="80" opacity="0.2"></rect></g><g transform="translate(-510,-238) scale(1,1)"><rect fill="#ffffff" stroke="none" x="992" y="976" width="256" height="80"></rect></g><g transform="translate(-510,-238) scale(1,1)"><path fill="none" stroke="#000000" d="M 992 976 L 1248 976 L 1248 1056 L 992 1056 L 992 976 Z Z" stroke-miterlimit="10"></path></g><g transform="translate(-510,-238) scale(1,1)"><path fill="none" stroke="#000000" d="M 992 1001 L 1248 1001" stroke-miterlimit="10"></path></g><g transform="translate(-510,-238) scale(1,1)"><path fill="none" stroke="#000000" d="M 992 1024 L 1248 1024" stroke-miterlimit="10"></path></g><g transform="translate(-510,-238) scale(1,1)"><g><path fill="none" stroke="none"></path><text fill="#000000" stroke="none" font-family="Arial" font-size="13px" font-style="normal" font-weight="bold" text-decoration="none" x="1074" y="995.5">ActivityChecker</text></g></g><g transform="translate(-510,-238) scale(1,1)"><g><path fill="none" stroke="none"></path><text fill="#000000" stroke="none" font-family="Arial" font-size="13px" font-style="normal" font-weight="normal" text-decoration="none" x="997" y="1018.5">+mainChannel: Channel</text></g></g><g transform="translate(-510,-238) scale(1,1)"><g><path fill="none" stroke="none"></path><text fill="#000000" stroke="none" font-family="Arial" font-size="13px" font-style="normal" font-weight="normal" text-decoration="none" x="997" y="1041.5">+run()</text></g></g><g transform="translate(-510,-238) scale(1,1)"><path fill="none" stroke="#000000" d="M 1120 976 L 1120 872 L 944 872" stroke-miterlimit="10"></path></g><g transform="translate(-510,-238) scale(1,1)"><rect fill="#C0C0C0" stroke="none" x="999" y="583" width="260" height="176" opacity="0.2"></rect></g><g transform="translate(-510,-238) scale(1,1)"><rect fill="#ffffff" stroke="none" x="992" y="576" width="260" height="176"></rect></g><g transform="translate(-510,-238) scale(1,1)"><path fill="none" stroke="#000000" d="M 992 576 L 1252 576 L 1252 752 L 992 752 L 992 576 Z Z" stroke-miterlimit="10"></path></g><g transform="translate(-510,-238) scale(1,1)"><path fill="none" stroke="#000000" d="M 992 601 L 1252 601" stroke-miterlimit="10"></path></g><g transform="translate(-510,-238) scale(1,1)"><path fill="none" stroke="#000000" d="M 992 654 L 1252 654" stroke-miterlimit="10"></path></g><g transform="translate(-510,-238) scale(1,1)"><g><path fill="none" stroke="none"></path><text fill="#000000" stroke="none" font-family="Arial" font-size="13px" font-style="normal" font-weight="bold" text-decoration="none" x="1081.5" y="595.5">ClientProcess</text></g></g><g transform="translate(-510,-238) scale(1,1)"><g><path fill="none" stroke="none"></path><text fill="#000000" stroke="none" font-family="Arial" font-size="13px" font-style="normal" font-weight="normal" text-decoration="none" x="997" y="618.5">+messages: ArrayList&lt;JCoincheMessage&gt;</text></g></g><g transform="translate(-510,-238) scale(1,1)"><g><path fill="none" stroke="none"></path><text fill="#000000" stroke="none" font-family="Arial" font-size="13px" font-style="normal" font-weight="normal" text-decoration="none" x="997" y="633.5">+messageHandler: MessageHandler</text></g></g><g transform="translate(-510,-238) scale(1,1)"><g><path fill="none" stroke="none"></path><text fill="#000000" stroke="none" font-family="Arial" font-size="13px" font-style="normal" font-weight="normal" text-decoration="none" x="997" y="648.5">+playerInformation: PlayerInformation</text></g></g><g transform="translate(-510,-238) scale(1,1)"><g><path fill="none" stroke="none"></path><text fill="#000000" stroke="none" font-family="Arial" font-size="13px" font-style="normal" font-weight="normal" text-decoration="none" x="997" y="671.5">+addMessage()</text></g></g><g transform="translate(-510,-238) scale(1,1)"><g><path fill="none" stroke="none"></path><text fill="#000000" stroke="none" font-family="Arial" font-size="13px" font-style="normal" font-weight="normal" text-decoration="none" x="997" y="686.5">+removeMessage()</text></g></g><g transform="translate(-510,-238) scale(1,1)"><path fill="none" stroke="#000000" d="M 1120 752 L 1120 856 L 944 856" stroke-miterlimit="10"></path></g><g transform="translate(-510,-238) scale(1,1)"><rect fill="#C0C0C0" stroke="none" x="1287" y="583" width="256" height="178" opacity="0.2"></rect></g><g transform="translate(-510,-238) scale(1,1)"><rect fill="#ffffff" stroke="none" x="1280" y="576" width="256" height="178"></rect></g><g transform="translate(-510,-238) scale(1,1)"><path fill="none" stroke="#000000" d="M 1280 576 L 1536 576 L 1536 754 L 1280 754 L 1280 576 Z Z" stroke-miterlimit="10"></path></g><g transform="translate(-510,-238) scale(1,1)"><path fill="none" stroke="#000000" d="M 1280 601 L 1536 601" stroke-miterlimit="10"></path></g><g transform="translate(-510,-238) scale(1,1)"><path fill="none" stroke="#000000" d="M 1280 624 L 1536 624" stroke-miterlimit="10"></path></g><g transform="translate(-510,-238) scale(1,1)"><g><path fill="none" stroke="none"></path><text fill="#000000" stroke="none" font-family="Arial" font-size="13px" font-style="normal" font-weight="bold" text-decoration="none" x="1359.5" y="595.5">MessageHandler</text></g></g><g transform="translate(-510,-238) scale(1,1)"><g><path fill="none" stroke="none"></path><text fill="#000000" stroke="none" font-family="Arial" font-size="13px" font-style="normal" font-weight="normal" text-decoration="none" x="1285" y="618.5">+clientProcess: ClientProcess</text></g></g><g transform="translate(-510,-238) scale(1,1)"><g><path fill="none" stroke="none"></path><text fill="#000000" stroke="none" font-family="Arial" font-size="13px" font-style="normal" font-weight="normal" text-decoration="none" x="1285" y="641.5">+promptInt()</text></g></g><g transform="translate(-510,-238) scale(1,1)"><g><path fill="none" stroke="none"></path><text fill="#000000" stroke="none" font-family="Arial" font-size="13px" font-style="normal" font-weight="normal" text-decoration="none" x="1285" y="656.5">+handleMesage()</text></g></g><g transform="translate(-510,-238) scale(1,1)"><g><path fill="none" stroke="none"></path><text fill="#000000" stroke="none" font-family="Arial" font-size="13px" font-style="normal" font-weight="normal" text-decoration="none" x="1285" y="671.5">-handleGetBidMessage()</text></g></g><g transform="translate(-510,-238) scale(1,1)"><g><path fill="none" stroke="none"></path><text fill="#000000" stroke="none" font-family="Arial" font-size="13px" font-style="normal" font-weight="normal" text-decoration="none" x="1285" y="686.5">-handleSendBidMessage()</text></g></g><g transform="translate(-510,-238) scale(1,1)"><rect fill="#C0C0C0" stroke="none" x="711" y="583" width="264" height="175" opacity="0.2"></rect></g><g transform="translate(-510,-238) scale(1,1)"><rect fill="#ffffff" stroke="none" x="704" y="576" width="264" height="175"></rect></g><g transform="translate(-510,-238) scale(1,1)"><path fill="none" stroke="#000000" d="M 704 576 L 968 576 L 968 751 L 704 751 L 704 576 Z Z" stroke-miterlimit="10"></path></g><g transform="translate(-510,-238) scale(1,1)"><path fill="none" stroke="#000000" d="M 704 601 L 968 601" stroke-miterlimit="10"></path></g><g transform="translate(-510,-238) scale(1,1)"><path fill="none" stroke="#000000" d="M 704 729 L 968 729" stroke-miterlimit="10"></path></g><g transform="translate(-510,-238) scale(1,1)"><g><path fill="none" stroke="none"></path><text fill="#000000" stroke="none" font-family="Arial" font-size="13px" font-style="normal" font-weight="bold" text-decoration="none" x="785" y="595.5">PlayerInformation</text></g></g><g transform="translate(-510,-238) scale(1,1)"><g><path fill="none" stroke="none"></path><text fill="#000000" stroke="none" font-family="Arial" font-size="13px" font-style="normal" font-weight="normal" text-decoration="none" x="709" y="618.5">+token: String</text></g></g><g transform="translate(-510,-238) scale(1,1)"><g><path fill="none" stroke="none"></path><text fill="#000000" stroke="none" font-family="Arial" font-size="13px" font-style="normal" font-weight="normal" text-decoration="none" x="709" y="633.5">+playerId: int</text></g></g><g transform="translate(-510,-238) scale(1,1)"><g><path fill="none" stroke="none"></path><text fill="#000000" stroke="none" font-family="Arial" font-size="13px" font-style="normal" font-weight="normal" text-decoration="none" x="709" y="648.5">+teamId: int</text></g></g><g transform="translate(-510,-238) scale(1,1)"><g><path fill="none" stroke="none"></path><text fill="#000000" stroke="none" font-family="Arial" font-size="13px" font-style="normal" font-weight="normal" text-decoration="none" x="709" y="663.5">+channel: Channel</text></g></g><g transform="translate(-510,-238) scale(1,1)"><g><path fill="none" stroke="none"></path><text fill="#000000" stroke="none" font-family="Arial" font-size="13px" font-style="normal" font-weight="normal" text-decoration="none" x="709" y="678.5">+cards: ArrayList&lt;JCoincheCards&gt;</text></g></g><g transform="translate(-510,-238) scale(1,1)"><g><path fill="none" stroke="none"></path><text fill="#000000" stroke="none" font-family="Arial" font-size="13px" font-style="normal" font-weight="normal" text-decoration="none" x="709" y="693.5">+bidValue: int</text></g></g><g transform="translate(-510,-238) scale(1,1)"><g><path fill="none" stroke="none"></path><text fill="#000000" stroke="none" font-family="Arial" font-size="13px" font-style="normal" font-weight="normal" text-decoration="none" x="709" y="708.5">+bidTrump: int</text></g></g><g transform="translate(-510,-238) scale(1,1)"><g><path fill="none" stroke="none"></path><text fill="#000000" stroke="none" font-family="Arial" font-size="13px" font-style="normal" font-weight="normal" text-decoration="none" x="709" y="723.5">+lastPlayedCard: JCoincheCard</text></g></g><g transform="translate(-510,-238) scale(1,1)"><g><path fill="none" stroke="none"></path><text fill="#000000" stroke="none" font-family="Arial" font-size="13px" font-style="normal" font-weight="normal" text-decoration="none" x="709" y="746.5">+dumpCards()</text></g></g><g transform="translate(-510,-238) scale(1,1)"><path fill="none" stroke="#000000" d="M 736 900 L 720 900" stroke-miterlimit="10"></path></g><g transform="translate(-510,-238) scale(1,1)"><path fill="none" stroke="#000000" d="M 1252 624 L 1280 624" stroke-miterlimit="10"></path></g><g transform="translate(-510,-238) scale(1,1)"><path fill="none" stroke="#000000" d="M 1269.837325142376 628.209517756016 L 1280 624 L 1269.837325142376 619.790482243984" stroke-miterlimit="10"></path></g><g transform="translate(-510,-238) scale(1,1)"><path fill="none" stroke="#000000" d="M 992 640 L 968 640" stroke-miterlimit="10"></path></g><g transform="translate(-510,-238) scale(1,1)"><path fill="none" stroke="#000000" d="M 978.1626748576241 635.790482243984 L 968 640 L 978.1626748576241 644.209517756016" stroke-miterlimit="10"></path></g><g transform="translate(-510,-238) scale(1,1)"><rect fill="#C0C0C0" stroke="none" x="711" y="471" width="264" height="96" opacity="0.2"></rect></g><g transform="translate(-510,-238) scale(1,1)"><rect fill="#ffffff" stroke="none" x="704" y="464" width="264" height="96"></rect></g><g transform="translate(-510,-238) scale(1,1)"><path fill="none" stroke="#000000" d="M 704 464 L 968 464 L 968 560 L 704 560 L 704 464 Z Z" stroke-miterlimit="10"></path></g><g transform="translate(-510,-238) scale(1,1)"><path fill="none" stroke="#000000" d="M 704 489 L 968 489" stroke-miterlimit="10"></path></g><g transform="translate(-510,-238) scale(1,1)"><path fill="none" stroke="#000000" d="M 704 527 L 968 527" stroke-miterlimit="10"></path></g><g transform="translate(-510,-238) scale(1,1)"><g><path fill="none" stroke="none"></path><text fill="#000000" stroke="none" font-family="Arial" font-size="13px" font-style="normal" font-weight="bold" text-decoration="none" x="795.5" y="483.5">JCoincheCard</text></g></g><g transform="translate(-510,-238) scale(1,1)"><g><path fill="none" stroke="none"></path><text fill="#000000" stroke="none" font-family="Arial" font-size="13px" font-style="normal" font-weight="normal" text-decoration="none" x="709" y="506.5">+id: Enum Id</text></g></g><g transform="translate(-510,-238) scale(1,1)"><g><path fill="none" stroke="none"></path><text fill="#000000" stroke="none" font-family="Arial" font-size="13px" font-style="normal" font-weight="normal" text-decoration="none" x="709" y="521.5">+color: Enum Color</text></g></g><g transform="translate(-510,-238) scale(1,1)"><g><path fill="none" stroke="none"></path><text fill="#000000" stroke="none" font-family="Arial" font-size="13px" font-style="normal" font-weight="normal" text-decoration="none" x="709" y="544.5">+equals()</text></g></g><g transform="translate(-510,-238) scale(1,1)"><rect fill="#C0C0C0" stroke="none" x="855" y="255" width="120" height="192" opacity="0.2"></rect></g><g transform="translate(-510,-238) scale(1,1)"><rect fill="#ffffff" stroke="none" x="848" y="248" width="120" height="192"></rect></g><g transform="translate(-510,-238) scale(1,1)"><path fill="none" stroke="#000000" d="M 848 248 L 968 248 L 968 440 L 848 440 L 848 248 Z Z" stroke-miterlimit="10"></path></g><g transform="translate(-510,-238) scale(1,1)"><path fill="none" stroke="#000000" d="M 848 286 L 968 286" stroke-miterlimit="10"></path></g><g transform="translate(-510,-238) scale(1,1)"><g><path fill="none" stroke="none"></path><text fill="#000000" stroke="none" font-family="Arial" font-size="13px" font-style="normal" font-weight="normal" text-decoration="none" x="865.5" y="265.5">«enumeration»</text></g></g><g transform="translate(-510,-238) scale(1,1)"><g><path fill="none" stroke="none"></path><text fill="#000000" stroke="none" font-family="Arial" font-size="13px" font-style="normal" font-weight="bold" text-decoration="none" x="893" y="280.5">Color</text></g></g><g transform="translate(-510,-238) scale(1,1)"><g><path fill="none" stroke="none"></path><text fill="#000000" stroke="none" font-family="Arial" font-size="13px" font-style="normal" font-weight="normal" text-decoration="none" x="853" y="303.5">HEART</text></g></g><g transform="translate(-510,-238) scale(1,1)"><g><path fill="none" stroke="none"></path><text fill="#000000" stroke="none" font-family="Arial" font-size="13px" font-style="normal" font-weight="normal" text-decoration="none" x="853" y="318.5">DIAMOND</text></g></g><g transform="translate(-510,-238) scale(1,1)"><g><path fill="none" stroke="none"></path><text fill="#000000" stroke="none" font-family="Arial" font-size="13px" font-style="normal" font-weight="normal" text-decoration="none" x="853" y="333.5">CLUB</text></g></g><g transform="translate(-510,-238) scale(1,1)"><g><path fill="none" stroke="none"></path><text fill="#000000" stroke="none" font-family="Arial" font-size="13px" font-style="normal" font-weight="normal" text-decoration="none" x="853" y="348.5">SPADE</text></g></g><g transform="translate(-510,-238) scale(1,1)"><rect fill="#C0C0C0" stroke="none" x="711" y="295" width="120" height="150" opacity="0.2"></rect></g><g transform="translate(-510,-238) scale(1,1)"><rect fill="#ffffff" stroke="none" x="704" y="288" width="120" height="150"></rect></g><g transform="translate(-510,-238) scale(1,1)"><path fill="none" stroke="#000000" d="M 704 288 L 824 288 L 824 438 L 704 438 L 704 288 Z Z" stroke-miterlimit="10"></path></g><g transform="translate(-510,-238) scale(1,1)"><path fill="none" stroke="#000000" d="M 704 326 L 824 326" stroke-miterlimit="10"></path></g><g transform="translate(-510,-238) scale(1,1)"><g><path fill="none" stroke="none"></path><text fill="#000000" stroke="none" font-family="Arial" font-size="13px" font-style="normal" font-weight="normal" text-decoration="none" x="721.5" y="305.5">«enumeration»</text></g></g><g transform="translate(-510,-238) scale(1,1)"><g><path fill="none" stroke="none"></path><text fill="#000000" stroke="none" font-family="Arial" font-size="13px" font-style="normal" font-weight="bold" text-decoration="none" x="758.5" y="320.5">Id</text></g></g><g transform="translate(-510,-238) scale(1,1)"><g><path fill="none" stroke="none"></path><text fill="#000000" stroke="none" font-family="Arial" font-size="13px" font-style="normal" font-weight="normal" text-decoration="none" x="709" y="343.5">ACE</text></g></g><g transform="translate(-510,-238) scale(1,1)"><g><path fill="none" stroke="none"></path><text fill="#000000" stroke="none" font-family="Arial" font-size="13px" font-style="normal" font-weight="normal" text-decoration="none" x="709" y="358.5">SEVEN</text></g></g><g transform="translate(-510,-238) scale(1,1)"><g><path fill="none" stroke="none"></path><text fill="#000000" stroke="none" font-family="Arial" font-size="13px" font-style="normal" font-weight="normal" text-decoration="none" x="709" y="373.5">EIGHT</text></g></g><g transform="translate(-510,-238) scale(1,1)"><g><path fill="none" stroke="none"></path><text fill="#000000" stroke="none" font-family="Arial" font-size="13px" font-style="normal" font-weight="normal" text-decoration="none" x="709" y="388.5">NINE</text></g></g><g transform="translate(-510,-238) scale(1,1)"><g><path fill="none" stroke="none"></path><text fill="#000000" stroke="none" font-family="Arial" font-size="13px" font-style="normal" font-weight="normal" text-decoration="none" x="709" y="403.5">JACK</text></g></g><g transform="translate(-510,-238) scale(1,1)"><g><path fill="none" stroke="none"></path><text fill="#000000" stroke="none" font-family="Arial" font-size="13px" font-style="normal" font-weight="normal" text-decoration="none" x="709" y="418.5">QUEEN</text></g></g><g transform="translate(-510,-238) scale(1,1)"><g><path fill="none" stroke="none"></path><text fill="#000000" stroke="none" font-family="Arial" font-size="13px" font-style="normal" font-weight="normal" text-decoration="none" x="709" y="433.5">KING</text></g></g><g transform="translate(-510,-238) scale(1,1)"><path fill="none" stroke="#000000" d="M 704 512 L 560 512 L 560 272 L 848 272" stroke-miterlimit="10"></path></g><g transform="translate(-510,-238) scale(1,1)"><path fill="none" stroke="#000000" d="M 837.8373251423759 276.209517756016 L 848 272 L 837.8373251423758 267.790482243984" stroke-miterlimit="10"></path></g><g transform="translate(-510,-238) scale(1,1)"><path fill="none" stroke="#000000" d="M 704 496 L 584 496 L 584 312 L 704 312" stroke-miterlimit="10"></path></g><g transform="translate(-510,-238) scale(1,1)"><path fill="none" stroke="#000000" d="M 693.8373251423759 316.209517756016 L 704 312 L 693.8373251423758 307.790482243984" stroke-miterlimit="10"></path></g><g transform="translate(-510,-238) scale(1,1)"><path fill="none" stroke="#000000" d="M 704 536 L 544 536 L 544 672 L 704 672" stroke-miterlimit="10"></path></g><g transform="translate(-510,-238) scale(1,1)"><path fill="#000000" stroke="none" d="M 693.8373251423759 676.209517756016 L 704 672 L 693.8373251423758 667.790482243984 L 682 672"></path></g><g transform="translate(-510,-238) scale(1,1)"><path fill="none" stroke="#000000" d="M 693.8373251423759 676.209517756016 L 704 672 L 693.8373251423758 667.790482243984 L 682 672 L 693.8373251423759 676.209517756016" stroke-miterlimit="10"></path></g></g></svg>